<?xml version="1.0" encoding="UTF-8"?>
<svg id="Camada_1" data-name="Camada 1" xmlns="http://www.w3.org/2000/svg" viewBox="0 0 3727.13 693.05">
  <defs>
    <style>
      .cls-1 {
        fill: #c8d304;
      }

      .cls-2 {
        fill: #103239;
      }
    </style>
  </defs>
  <path class="cls-1" d="M3390.05,126.65c-22.15,0-40.09,17.95-40.09,40.09s17.95,40.09,40.09,40.09h182.51c22.14,0,40.09-17.95,40.09-40.09s-17.95-40.09-40.09-40.09h-182.51Z"/>
  <path class="cls-2" d="M281.59,598.84l-34.31-15.09c-3.35-1.57-6.12-2.37-8.28-2.37-3.75,0-7.2,2.27-10.35,6.8-16.37,23.66-40.03,35.49-70.99,35.49-24.85,0-45.85-8.57-63-25.73-17.56-17.35-26.33-38.55-26.33-63.6s8.58-45.55,25.73-62.71c17.35-17.35,38.65-26.03,63.89-26.03s45.74,8.09,63.3,24.26c5.92,5.52,10.45,8.28,13.6,8.28,2.76,0,6.02-1.38,9.77-4.14l27.51-20.41c4.53-3.55,6.8-7.3,6.8-11.24,0-4.14-4.43-10.35-13.3-18.64-31.95-30.17-68.44-45.25-109.44-45.25-43.39,0-80.36,15.28-110.93,45.84C15.09,454.69,0,491.27,0,534.06s15.28,80.56,45.85,110.92c30.36,30.57,67.44,45.84,111.22,45.84s78.38-14.39,107.96-43.19c17.16-16.76,25.74-29.38,25.74-37.86,0-4.73-3.06-8.38-9.18-10.94"/>
  <path class="cls-2" d="M471.5,378.47c-44.96,0-82.63,15.28-112.99,45.84-30.18,30.57-45.26,67.25-45.26,110.04s15.29,80.26,45.86,110.62c30.36,30.57,67.34,45.84,110.91,45.84s79.67-15.08,110.03-45.25c30.56-30.56,45.84-67.74,45.84-111.52s-15.19-79.66-45.55-110.03c-30.36-30.36-66.65-45.55-108.84-45.55M533.02,597.95c-17.17,17.16-38.16,25.73-63.01,25.73s-45.55-8.57-62.71-25.73c-17.55-17.35-26.32-38.65-26.32-63.89s8.58-45.26,25.73-62.41c17.35-17.35,38.26-26.03,62.71-26.03s47.03,8.68,64.18,26.03c17.16,17.35,25.73,38.26,25.73,62.71s-8.78,46.24-26.32,63.6"/>
  <path class="cls-2" d="M798.02,378.47c-26.43,0-49.99,7.01-70.7,21l-14.78-16.26h-33.42c-10.06-.2-14.99,4.74-14.8,14.79v273.31c-.2,10.06,4.73,14.98,14.8,14.79h36.97c10.06.19,14.98-4.74,14.78-14.79v-162.68c0-17.94,5.33-32.63,15.97-44.07,12.23-13.02,28.69-19.52,49.4-19.52,18.73,0,34.7,6.51,47.92,19.52,13.4,13.21,20.11,28.89,20.11,47.03v159.73c-.2,10.06,4.73,14.98,14.8,14.79h37.56c10.06.19,14.99-4.74,14.79-14.79v-163.87c0-37.07-11.93-67.54-35.79-91.4-25.25-25.04-57.78-37.57-97.61-37.57"/>
  <path class="cls-2" d="M1248.62,598.84l-34.31-15.09c-3.35-1.57-6.12-2.37-8.28-2.37-3.75,0-7.2,2.27-10.35,6.8-16.37,23.66-40.03,35.49-70.99,35.49-24.85,0-45.85-8.57-63-25.73-17.56-17.35-26.33-38.55-26.33-63.6s8.57-45.55,25.73-62.71c17.35-17.35,38.65-26.03,63.89-26.03s45.74,8.09,63.3,24.26c5.92,5.52,10.45,8.28,13.6,8.28,2.76,0,6.02-1.38,9.76-4.14l27.51-20.41c4.53-3.55,6.8-7.3,6.8-11.24,0-4.14-4.43-10.35-13.3-18.64-31.95-30.17-68.44-45.25-109.44-45.25-43.39,0-80.36,15.28-110.93,45.84-30.17,30.37-45.26,66.95-45.26,109.74s15.28,80.56,45.85,110.92c30.36,30.57,67.44,45.84,111.22,45.84s78.38-14.39,107.96-43.19c17.16-16.76,25.73-29.38,25.73-37.86,0-4.73-3.06-8.38-9.17-10.94"/>
  <path class="cls-2" d="M2252.26,261.93h-36.97c-10.07-.2-14.99,4.73-14.8,14.78v131.34c-28.2-19.72-58.17-29.58-89.91-29.58-43.19,0-80.06,15.29-110.62,45.84-30.77,30.57-46.15,67.34-46.15,110.33s15.38,79.77,46.15,110.33c30.56,30.57,67.54,45.84,110.91,45.84,32.93,0,63.4-10.24,91.4-30.76l14.79,26.03h35.2c10.06.19,14.99-4.73,14.78-14.79v-394.59c.2-10.06-4.73-14.98-14.78-14.78M2173.57,598.54c-17.16,17.16-38.15,25.74-63,25.74s-46.24-8.68-63.6-26.03c-17.35-17.16-26.03-38.36-26.03-63.6s8.68-46.44,26.03-63.6c17.35-17.35,38.26-26.03,62.71-26.03s46.73,8.58,63.89,25.73c17.55,17.55,26.33,38.85,26.33,63.89s-8.78,46.54-26.33,63.89"/>
  <path class="cls-2" d="M2459.79,378.47c-44.96,0-82.63,15.28-112.99,45.84-30.18,30.57-45.26,67.25-45.26,110.04s15.29,80.26,45.86,110.62c30.36,30.57,67.33,45.84,110.91,45.84s79.66-15.08,110.03-45.25c30.56-30.56,45.85-67.74,45.85-111.52s-15.19-79.66-45.55-110.03c-30.36-30.36-66.65-45.55-108.85-45.55M2521.31,597.95c-17.16,17.16-38.16,25.73-63.01,25.73s-45.55-8.57-62.71-25.73c-17.55-17.35-26.32-38.65-26.32-63.89s8.58-45.26,25.73-62.41c17.35-17.35,38.26-26.03,62.71-26.03s47.03,8.68,64.18,26.03c17.16,17.35,25.73,38.26,25.73,62.71s-8.78,46.24-26.32,63.6"/>
  <path class="cls-2" d="M2804.2,378.47h-15.38c-32.15.59-57,7.99-74.54,22.19l-14.8-17.45h-34.61c-10.06-.2-14.99,4.74-14.79,14.79v273.31c-.2,10.06,4.73,14.98,14.79,14.79h36.98c10.06.19,14.98-4.74,14.78-14.79v-162.68c.99-41.02,25.83-61.82,74.54-62.41h13.02c10.06.2,14.98-4.73,14.78-14.79v-38.16c.2-10.24-4.73-15.18-14.78-14.78"/>
  <path class="cls-2" d="M1456.15,271.61c-6.7-6.7-14.79-10.06-24.26-10.06-8.87,0-16.66,3.35-23.36,10.06-6.32,6.51-9.54,13.96-9.73,22.32-.22,1.32-.28,363.58-.25,364.15l-.08,1.84c0,8.87,3.15,16.57,9.47,23.07,6.7,6.7,14.79,10.06,24.26,10.06,8.87,0,16.66-3.35,23.36-10.06,6.32-6.51,9.54-13.96,9.72-22.32.23-1.32.28-363.58.25-364.15l.08-1.84c0-8.87-3.15-16.57-9.47-23.07"/>
  <path class="cls-2" d="M1904.16,383.2h-33.43c-10.05-.2-14.98,4.73-14.78,14.78v11.25c-28.8-20.51-59.76-30.76-92.89-30.76-43.18,0-80.06,15.28-110.62,45.85-30.57,30.56-45.85,67.34-45.85,110.33s15.28,79.76,45.85,110.33c30.56,30.56,67.34,45.84,110.33,45.84,32.73,0,63.78-10.46,93.18-31.35l14.78,26.62h33.43c10.06.2,14.98-4.73,14.79-14.79v-273.31c.19-10.05-4.73-14.98-14.79-14.78M1826.37,598.24c-17.16,17.35-38.65,26.03-64.48,26.03-24.45,0-45.36-8.68-62.71-26.03-17.35-17.35-26.03-38.55-26.03-63.6s8.68-46.44,26.03-63.6c17.35-17.35,38.55-26.03,63.6-26.03s46.24,8.68,63.6,26.03c17.34,17.16,26.03,38.35,26.03,63.6s-8.68,46.24-26.03,63.6"/>
  <path class="cls-2" d="M3132.32,383.2h-33.43c-10.06-.2-14.98,4.73-14.78,14.78v11.25c-28.8-20.51-59.75-30.76-92.88-30.76-43.19,0-80.06,15.28-110.62,45.85-30.57,30.56-45.85,67.34-45.85,110.33s15.28,79.76,45.85,110.33c30.56,30.56,67.34,45.84,110.33,45.84,32.74,0,63.78-10.46,93.18-31.35l14.78,26.62h33.43c10.06.2,14.98-4.73,14.79-14.79v-273.31c.19-10.05-4.74-14.98-14.79-14.78M3054.52,598.24c-17.16,17.35-38.65,26.03-64.48,26.03-24.45,0-45.36-8.68-62.71-26.03-17.35-17.35-26.03-38.55-26.03-63.6s8.67-46.44,26.03-63.6c17.35-17.35,38.55-26.03,63.6-26.03s46.24,8.68,63.6,26.03c17.35,17.16,26.03,38.35,26.03,63.6s-8.68,46.24-26.03,63.6"/>
  <path class="cls-2" d="M3276.17,80.8c11.2,0,20.86-3.93,28.96-11.8,7.86-7.86,11.79-17.4,11.79-28.6s-3.93-20.73-11.79-28.6c-7.87-7.86-17.52-11.8-28.96-11.8-10.72,0-20.03,3.81-27.89,11.44-8.1,8.1-12.15,17.88-12.15,29.31,0,10.72,4.05,20.14,12.15,28.24,8.11,7.86,17.4,11.8,27.89,11.8"/>
  <path class="cls-2" d="M3379.27,81.49h307.76c22.15,0,40.09-17.95,40.09-40.09s-17.95-40.09-40.09-40.09h-307.76c-22.15,0-40.09,17.95-40.09,40.09s17.95,40.09,40.09,40.09"/>
  <path class="cls-2" d="M3687.09,252.19c-11.2,0-20.86,3.94-28.96,11.8-7.86,7.86-11.8,17.4-11.8,28.6s3.93,20.73,11.8,28.6c7.87,7.86,17.52,11.8,28.96,11.8,10.72,0,20.02-3.81,27.89-11.44,8.1-8.1,12.15-17.88,12.15-29.31,0-10.73-4.05-20.14-12.15-28.24-8.11-7.86-17.4-11.8-27.89-11.8"/>
  <path class="cls-2" d="M3583.99,251.49h-307.77c-22.15,0-40.09,17.95-40.09,40.09s17.95,40.09,40.09,40.09h307.77c22.14,0,40.09-17.95,40.09-40.09s-17.95-40.09-40.09-40.09"/>
  <path class="cls-2" d="M1327.35,288.43c-8.84,0-16.6,3.34-23.27,10.01-6.48,6.68-9.73,14.34-9.73,22.98,0,9.24,3.25,17.19,9.73,23.87,6.48,6.48,14.33,9.72,23.56,9.72s17.08-3.24,23.57-9.72c6.49-6.48,9.73-14.43,9.73-23.87,0-8.84-3.14-16.49-9.43-22.98-6.68-6.67-14.73-10.01-24.16-10.01"/>
  <path class="cls-2" d="M1326.82,373.34c-18.25,0-33.04,14.79-33.04,33.04v253.63c0,18.25,14.8,33.04,33.04,33.04s33.04-14.79,33.04-33.04v-253.63c0-18.25-14.79-33.04-33.04-33.04"/>
  <path class="cls-2" d="M1536.8,288.43c-8.84,0-16.6,3.34-23.27,10.01-6.48,6.68-9.72,14.34-9.72,22.98,0,9.24,3.24,17.19,9.72,23.87,6.48,6.48,14.33,9.72,23.56,9.72s17.08-3.24,23.57-9.72c6.48-6.48,9.73-14.43,9.73-23.87,0-8.84-3.14-16.49-9.43-22.98-6.68-6.67-14.72-10.01-24.16-10.01"/>
  <path class="cls-2" d="M1536.27,373.34c-18.25,0-33.04,14.79-33.04,33.04v253.63c0,18.25,14.79,33.04,33.04,33.04s33.04-14.79,33.04-33.04v-253.63c0-18.25-14.79-33.04-33.04-33.04"/>
</svg>